<?xml version="1.0" encoding="UTF-8" standalone="no"?>
<svg
   xmlns:dc="http://purl.org/dc/elements/1.1/"
   xmlns:cc="http://creativecommons.org/ns#"
   xmlns:rdf="http://www.w3.org/1999/02/22-rdf-syntax-ns#"
   xmlns:svg="http://www.w3.org/2000/svg"
   xmlns="http://www.w3.org/2000/svg"
   xmlns:sodipodi="http://sodipodi.sourceforge.net/DTD/sodipodi-0.dtd"
   xmlns:inkscape="http://www.inkscape.org/namespaces/inkscape"
   sodipodi:docname="gallarybackground.svg"
   inkscape:version="1.0 (4035a4fb49, 2020-05-01)"
   inkscape:export-ydpi="95.885712"
   inkscape:export-xdpi="95.885712"
   inkscape:export-filename="C:\Users\trevo\Documents\college\site\boardside.png"
   id="svg8"
   version="1.1"
   viewBox="0 0 283.10416 222.25001"
   height="840"
   width="1070">
  <defs
     id="defs2">
    <clipPath
       clipPathUnits="userSpaceOnUse"
       id="clipPath1005">
      <path
         style="fill:none;stroke:#000000;stroke-width:0.264583px;stroke-linecap:butt;stroke-linejoin:miter;stroke-opacity:1"
         d="m -449.54735,-329.81059 331.68149,-14.16529 -12.42803,-95.28159 c 3.78287,-17.19754 26.947,-19.84848 34.878668,-3.8754 l 7.216278,80.18084 3.87541,0.66818 0.133633,-4.40994 1.87089,-0.4009 0.267266,2.13815 6.815373,-0.13364 0.133633,1.87089 16.303443,-0.66817 0.534538,-1.73726 8.018086,-0.4009 0.80181,17.90706 17.372517,-1.60362 0.935445,-1.73725 12.962572,-2.93997 -0.400904,4.14269 196.710372,-9.08717 21.9161,-10.95806 c 6.93948,-2.88243 13.29677,-6.96807 25.3906,0.80182 l 6.54811,6.68173 46.37127,-1.73725 85.25896,546.69982 c 12.61777,-3.9779 32.31584,-3.9392 35.94775,21.11429 2.32513,16.22426 -13.24975,20.04898 -28.73145,25.92515 l 12.96257,82.9872 c 11.46149,6.26948 22.303,14.0889 32.3396,23.9206 4.93541,3.8906 3.60998,7.41291 2.67269,10.95807 -4.76316,10.39841 -9.21917,18.33954 -13.63073,25.92514 l -5.47904,0.13364 -6.81538,7.21628 6.81538,52.78572 -29.93419,2.40543 -928.89523,9.22078 3.87541,-65.74829 2.40543,-21.38156 -11.89349,-25.65787 2.67268,-5.61266 -2.13815,-4.40996 c -1.68989,-0.90784 -3.43667,-1.47418 -5.47904,-0.26726 l -3.34087,-6.81538 0.13364,-4.94448 13.89804,-11.4926 16.57069,-8.68624 8.01809,-60.40293 -35.54685,-15.7689 c -12.4406,-6.51439 -12.77726,-15.56217 -10.0226,-25.25697 5.74347,-12.48643 15.04752,-16.20828 25.39061,-17.37252 l 26.86058,12.6953 z"
         id="path1007"
         sodipodi:nodetypes="cccccccccccccccccccccccccccccccccccccccccccccccccccc" />
    </clipPath>
    <clipPath
       clipPathUnits="userSpaceOnUse"
       id="clipEmfPath1">
      <path
         d="M 0,0 L 34.087559,0 L 34.087559,34.087559 L 0,34.087559 z"
         id="path1104" />
    </clipPath>
    <pattern
       id="EMFhbasepattern"
       patternUnits="userSpaceOnUse"
       width="6"
       height="6"
       x="0"
       y="0" />
  </defs>
  <sodipodi:namedview
     inkscape:window-maximized="1"
     inkscape:window-y="-8"
     inkscape:window-x="1592"
     inkscape:window-height="1017"
     inkscape:window-width="1920"
     showguides="false"
     units="px"
     showgrid="false"
     inkscape:document-rotation="0"
     inkscape:current-layer="layer1"
     inkscape:document-units="mm"
     inkscape:cy="700.50332"
     inkscape:cx="525.28213"
     inkscape:zoom="0.49497475"
     inkscape:pageshadow="2"
     inkscape:pageopacity="0.0"
     borderopacity="1.0"
     bordercolor="#666666"
     pagecolor="#ffffff"
     id="base" />
  <metadata
     id="metadata5">
    <rdf:RDF>
      <cc:Work
         rdf:about="">
        <dc:format>image/svg+xml</dc:format>
        <dc:type
           rdf:resource="http://purl.org/dc/dcmitype/StillImage" />
        <dc:title></dc:title>
      </cc:Work>
    </rdf:RDF>
  </metadata>
  <g
     id="layer1"
     inkscape:groupmode="layer"
     inkscape:label="Layer 1">
    <rect
       y="0.52916718"
       x="5.0862627e-06"
       height="221.19167"
       width="283.10416"
       id="rect849"
       style="fill:#202020;stroke:none;stroke-width:0.264583;fill-opacity:1" />
  </g>
</svg>
