<?xml version="1.0" encoding="UTF-8" standalone="no"?>
<!-- Created with Inkscape (http://www.inkscape.org/) -->

<svg
   width="256"
   height="256"
   viewBox="0 0 67.733332 67.733335"
   version="1.1"
   id="svg5"
   inkscape:version="1.1 (c68e22c387, 2021-05-23)"
   sodipodi:docname="logo.svg"
   inkscape:export-filename="C:\Users\trevo\Documents\college\records\logo3.png"
   inkscape:export-xdpi="1000"
   inkscape:export-ydpi="1000"
   xmlns:inkscape="http://www.inkscape.org/namespaces/inkscape"
   xmlns:sodipodi="http://sodipodi.sourceforge.net/DTD/sodipodi-0.dtd"
   xmlns="http://www.w3.org/2000/svg"
   xmlns:svg="http://www.w3.org/2000/svg">
  <sodipodi:namedview
     id="namedview7"
     pagecolor="#505050"
     bordercolor="#eeeeee"
     borderopacity="1"
     inkscape:pageshadow="0"
     inkscape:pageopacity="0"
     inkscape:pagecheckerboard="0"
     inkscape:document-units="mm"
     showgrid="false"
     inkscape:zoom="1"
     inkscape:cx="166"
     inkscape:cy="334.5"
     inkscape:window-width="1920"
     inkscape:window-height="1017"
     inkscape:window-x="1592"
     inkscape:window-y="-8"
     inkscape:window-maximized="1"
     inkscape:current-layer="layer1"
     units="px" />
  <defs
     id="defs2">
    <rect
       x="196.98062"
       y="344.0415"
       width="287.37582"
       height="213.17081"
       id="rect2432" />
  </defs>
  <g
     inkscape:label="Layer 1"
     inkscape:groupmode="layer"
     id="layer1">
    <g
       id="g11438"
       transform="translate(91.799709,7.6691546)">
      <path
         d="M 50.796643,4.5334311 47.558834,12.51064 H 39.159298 L 28.366603,39.023122 H 18.324698 l 10.7927,-26.512482 h -8.164911 l 3.23781,-7.9772089 z"
         style="font-size:40px;line-height:1.25;font-family:Longhaul;-inkscape-font-specification:'Longhaul, Normal';letter-spacing:0px;word-spacing:0px;white-space:pre;fill:#d83f09;fill-opacity:1;stroke-width:1.17312"
         id="path9390" />
      <path
         d="M 40.520122,26.071884 H 50.562023 L 36.531514,60.561593 H 26.489613 L 31.369791,48.548866 H 24.47185 L 19.591672,60.561593 H 9.5497718 L 23.580276,26.071884 h 10.041905 l -5.255578,12.951238 h 6.897942 z"
         style="font-size:40px;line-height:1.25;font-family:Longhaul;-inkscape-font-specification:'Longhaul, Normal';letter-spacing:0px;word-spacing:0px;white-space:pre;fill:#d83f09;fill-opacity:1;stroke-width:1.17312"
         id="path9392" />
    </g>
    <g
       id="g11455"
       transform="matrix(4.1700309,0,0,4.1700309,-214.04998,-426.57933)">
      <path
         d="m 59.430832,106.52851 -0.73025,1.79917 h -1.894417 l -2.434166,5.97958 h -2.264834 l 2.434167,-5.97958 h -1.8415 l 0.73025,-1.79917 z"
         style="font-size:40px;line-height:1.25;font-family:Longhaul;-inkscape-font-specification:'Longhaul, Normal';letter-spacing:0px;word-spacing:0px;white-space:pre;fill:#d83f09;fill-opacity:1;stroke-width:0.264583"
         id="path9394" />
      <path
         d="m 59.811822,106.52851 h -2.264833 l 3.164417,7.77875 h 2.264833 l -1.100667,-2.70933 h 1.55575 l 1.100667,2.70933 h 2.264833 l -3.164416,-7.77875 h -2.264834 l 1.185334,2.921 h -1.55575 z"
         style="font-size:40px;line-height:1.25;font-family:Longhaul;-inkscape-font-specification:'Longhaul, Normal';letter-spacing:0px;word-spacing:0px;white-space:pre;fill:#d83f09;fill-opacity:1;stroke-width:0.264583"
         id="path9396" />
    </g>
    <g
       id="g11460"
       transform="matrix(6.5229527,0,0,6.5229527,-249.78102,-721.59978)">
      <path
         d="m 54.288169,124.08161 c 0.03445,-0.0551 0.05857,-0.0948 0.07235,-0.11886 l 1.198893,-1.97921 1.064535,-0.0413 -0.790649,1.35392 h 3.384807 l -0.06201,0.24288 h -3.503663 l -1.250569,2.14974 c -0.272163,0.46509 -0.492649,0.88194 -0.661458,1.25057 -0.165365,0.36518 -0.248047,0.60461 -0.248047,0.7183 0,0.0275 0.01206,0.0499 0.03617,0.0672 0.02411,0.0172 0.05512,0.0258 0.09302,0.0258 0.08613,0 0.241156,-0.0896 0.465087,-0.26872 0.223933,-0.18259 0.563275,-0.49437 1.018027,-0.93534 l 0.118856,-0.12403 c 0.916395,-0.89228 1.457274,-1.33842 1.622639,-1.33842 0.01034,0 0.0379,0.005 0.08268,0.0155 0.01723,0.003 0.02929,0.005 0.03617,0.005 -0.248047,0.13091 -0.66318,0.49437 -1.245401,1.09037 -0.230821,0.23771 -0.411689,0.42203 -0.542603,0.55294 l -0.08268,0.0775 c -0.778591,0.77859 -1.347032,1.16789 -1.705321,1.16789 -0.203262,0 -0.361737,-0.0637 -0.475425,-0.1912 -0.113688,-0.12747 -0.170532,-0.30317 -0.170532,-0.5271 0,-0.25838 0.180867,-0.74414 0.542602,-1.45727 0.08613,-0.16537 0.151584,-0.29284 0.196371,-0.38241 z"
         style="font-size:40px;line-height:1.25;font-family:'CommercialScript BT';-inkscape-font-specification:'CommercialScript BT, Normal';letter-spacing:0px;word-spacing:0px;white-space:pre;fill:#d83f09;fill-opacity:1;stroke-width:0.264583"
         id="path9398"
         sodipodi:nodetypes="ccccccccccscscccscccccsssccc" />
      <path
         d="m 58.40677,121.84403 1.002522,-0.11369 -2.625161,5.01778 q 0.992187,-1.13171 1.539957,-1.5968 0.552937,-0.47026 0.873331,-0.47026 0.284221,0 0.449585,0.22221 0.165365,0.21704 0.165365,0.60462 0,0.29972 -0.170532,0.64595 -0.165364,0.34107 -0.589111,0.86817 -0.05168,0.0672 -0.144695,0.1757 -0.248047,0.30489 -0.248047,0.40824 0,0.0413 0.03101,0.0723 0.03617,0.031 0.08785,0.031 0.124024,0 0.434081,-0.23254 0.31006,-0.23255 0.759645,-0.66663 l 0.346231,-0.33589 q 1.452108,-1.40043 1.694987,-1.40043 0.0155,0 0.07235,0.0103 0.02585,0.005 0.04651,0.0104 -0.351398,0.17569 -1.431438,1.2609 -0.186033,0.18604 -0.284218,0.28422 l -0.118856,0.11886 q -1.235067,1.23506 -1.757,1.23506 -0.258381,0 -0.434081,-0.2222 -0.175701,-0.22738 -0.175701,-0.57878 0,-0.29456 0.129193,-0.59428 0.129191,-0.29972 0.568439,-0.89917 0.07235,-0.0982 0.196371,-0.26355 0.330729,-0.43925 0.330729,-0.50126 0,-0.0207 -0.03617,-0.0465 -0.03101,-0.0258 -0.06718,-0.0258 -0.237712,0 -1.095541,0.894 -0.852662,0.894 -1.741496,2.17558 l -1.090371,0.062 1.374592,-2.55799 q -0.149863,0.1447 -0.377238,0.37724 -0.361735,0.37207 -0.43925,0.37207 -0.03617,0 -0.06201,-0.0207 -0.02066,-0.0259 -0.02066,-0.062 0,-0.0517 0.232545,-0.28422 0.134358,-0.13436 0.222208,-0.22738 l 0.263549,-0.27388 q 0.170534,-0.17054 0.299725,-0.3359 0.129191,-0.17053 0.170532,-0.24805 z"
         style="font-size:40px;line-height:1.25;font-family:'CommercialScript BT';-inkscape-font-specification:'CommercialScript BT, Normal';letter-spacing:0px;word-spacing:0px;white-space:pre;fill:#d83f09;fill-opacity:1;stroke-width:0.264583"
         id="path9400" />
      <path
         style="fill:#d83f09;fill-opacity:1;stroke:none;stroke-width:0.264583px;stroke-linecap:butt;stroke-linejoin:miter;stroke-opacity:1"
         d="m 55.517912,123.76798 3.576173,0.0139 0.06925,-0.26975 -3.517099,0.006 -0.10043,0.20359"
         id="path10315"
         sodipodi:nodetypes="ccccc" />
    </g>
  </g>
</svg>
